<svg width="22" height="24" viewBox="0 0 22 24" fill="none" xmlns="http://www.w3.org/2000/svg">
<g clip-path="url(#clip0_106_4)">
<path d="M11.0049 6.60937C7.88171 6.60937 5.36252 9.01405 5.36252 11.9953C5.36252 14.9766 7.88171 17.3812 11.0049 17.3812C14.1281 17.3812 16.6473 14.9766 16.6473 11.9953C16.6473 9.01405 14.1281 6.60937 11.0049 6.60937ZM11.0049 15.4969C8.98662 15.4969 7.33662 13.9265 7.33662 11.9953C7.33662 10.0641 8.98171 8.49374 11.0049 8.49374C13.0281 8.49374 14.6732 10.0641 14.6732 11.9953C14.6732 13.9265 13.0232 15.4969 11.0049 15.4969ZM18.1942 6.38905C18.1942 7.08749 17.6049 7.6453 16.8781 7.6453C16.1464 7.6453 15.5621 7.0828 15.5621 6.38905C15.5621 5.6953 16.1513 5.1328 16.8781 5.1328C17.6049 5.1328 18.1942 5.6953 18.1942 6.38905ZM21.9313 7.66405C21.8478 5.98124 21.4451 4.49062 20.1536 3.26249C18.867 2.03437 17.3054 1.64999 15.5424 1.56562C13.7255 1.46718 8.27948 1.46718 6.46252 1.56562C4.70448 1.64531 3.14288 2.02968 1.85136 3.25781C0.559842 4.48593 0.162074 5.97655 0.0736816 7.65937C-0.0294433 9.39374 -0.0294433 14.5922 0.0736816 16.3265C0.157164 18.0094 0.559842 19.5 1.85136 20.7281C3.14288 21.9562 4.69957 22.3406 6.46252 22.425C8.27948 22.5234 13.7255 22.5234 15.5424 22.425C17.3054 22.3453 18.867 21.9609 20.1536 20.7281C21.4402 19.5 21.8429 18.0094 21.9313 16.3265C22.0344 14.5922 22.0344 9.39843 21.9313 7.66405ZM19.5839 18.1875C19.2009 19.1062 18.4594 19.814 17.492 20.1844C16.0433 20.7328 12.6058 20.6062 11.0049 20.6062C9.40403 20.6062 5.96162 20.7281 4.51787 20.1844C3.55537 19.8187 2.81386 19.1109 2.42591 18.1875C1.85136 16.8047 1.98395 13.5234 1.98395 11.9953C1.98395 10.4672 1.85627 7.18124 2.42591 5.80312C2.80895 4.88437 3.55046 4.17655 4.51787 3.80624C5.96653 3.25781 9.40403 3.38437 11.0049 3.38437C12.6058 3.38437 16.0482 3.26249 17.492 3.80624C18.4545 4.17187 19.196 4.87968 19.5839 5.80312C20.1585 7.18593 20.0259 10.4672 20.0259 11.9953C20.0259 13.5234 20.1585 16.8094 19.5839 18.1875Z" fill="black"/>
</g>
<defs>
<clipPath id="clip0_106_4">
<rect width="22" height="24" fill="white"/>
</clipPath>
</defs>
</svg>
