<svg width="22" height="24" viewBox="0 0 22 24" fill="none" xmlns="http://www.w3.org/2000/svg">
<path d="M19.7386 7.11169C19.7525 7.32488 19.7525 7.53811 19.7525 7.7513C19.7525 14.2538 15.2157 21.7462 6.92386 21.7462C4.36928 21.7462 1.9962 20.9391 0 19.5381C0.362957 19.5838 0.711906 19.599 1.08883 19.599C3.19666 19.599 5.13704 18.8224 6.68654 17.4975C4.7043 17.4518 3.04313 16.0356 2.47079 14.0863C2.75 14.132 3.02917 14.1624 3.32234 14.1624C3.72715 14.1624 4.132 14.1015 4.50888 13.995C2.4429 13.5381 0.893363 11.5584 0.893363 9.16753V9.10664C1.49359 9.47213 2.19162 9.70055 2.93141 9.73097C1.71695 8.8477 0.921293 7.34011 0.921293 5.63452C0.921293 4.72083 1.1446 3.88327 1.53549 3.1523C3.75504 6.13706 7.09135 8.08627 10.8324 8.2995C10.7626 7.93402 10.7207 7.55335 10.7207 7.17263C10.7207 4.46194 12.7309 2.25385 15.2296 2.25385C16.5278 2.25385 17.7004 2.84775 18.524 3.80714C19.543 3.59395 20.5202 3.18277 21.3857 2.61933C21.0506 3.76149 20.3387 4.72088 19.4035 5.32997C20.3109 5.22342 21.1903 4.94925 21.9999 4.56858C21.3858 5.54316 20.618 6.41114 19.7386 7.11169Z" fill="black"/>
</svg>
